<svg width="151" height="53" viewBox="0 0 151 53" fill="none" xmlns="http://www.w3.org/2000/svg">
<path d="M0 27.4391V2.34654H15.2611L14.6959 5.36108H4.24776V12.9317H13.4969L12.9488 15.8606H4.24776V27.4391H0Z" fill="#005227"/>
<path d="M27.2672 27.7817C25.8398 27.7817 24.5781 27.5419 23.4819 27.0623C22.3971 26.5827 21.4836 25.9376 20.7414 25.1269C19.9992 24.3047 19.434 23.357 19.0457 22.2836C18.6689 21.2102 18.4805 20.0741 18.4805 18.8751C18.4805 17.4935 18.726 16.2031 19.217 15.0042C19.708 13.7938 20.3931 12.7433 21.2724 11.8526C22.163 10.9505 23.2193 10.2426 24.4411 9.72874C25.6629 9.20348 27.0046 8.94085 28.4661 8.94085C29.8935 8.94085 31.1553 9.18064 32.2514 9.66022C33.3476 10.1398 34.2668 10.7907 35.0091 11.6128C35.7513 12.435 36.3108 13.3884 36.6876 14.4732C37.0758 15.5466 37.27 16.6827 37.27 17.8817C37.27 19.2748 37.0188 20.5765 36.5163 21.7869C36.0253 22.9859 35.3345 24.0307 34.4438 24.9213C33.5532 25.812 32.4969 26.5142 31.2751 27.0281C30.0533 27.5305 28.7174 27.7817 27.2672 27.7817ZM27.9866 24.8186C28.7174 24.8186 29.3854 24.6701 29.9905 24.3732C30.5957 24.0649 31.1153 23.6424 31.5492 23.1058C31.9831 22.5577 32.32 21.9068 32.5598 21.1532C32.7995 20.3995 32.9194 19.566 32.9194 18.6525C32.9194 17.7618 32.7995 16.9111 32.5598 16.1004C32.3314 15.2896 31.9945 14.576 31.5492 13.9594C31.1039 13.3313 30.5615 12.8346 29.922 12.4692C29.2826 12.0924 28.5575 11.904 27.7468 11.904C27.0046 11.904 26.3308 12.0582 25.7257 12.3665C25.1205 12.6748 24.6009 13.103 24.167 13.6511C23.7445 14.1992 23.4134 14.8557 23.1736 15.6208C22.9338 16.3744 22.8139 17.2023 22.8139 18.1044C22.8139 19.0064 22.9281 19.8628 23.1564 20.6736C23.3962 21.4843 23.7388 22.198 24.1841 22.8146C24.6295 23.4312 25.1719 23.9222 25.8113 24.2876C26.4507 24.6416 27.1758 24.8186 27.9866 24.8186Z" fill="#005227"/>
<path d="M50.2695 27.7817C48.8421 27.7817 47.5804 27.5419 46.4842 27.0623C45.3994 26.5827 44.4859 25.9376 43.7437 25.1269C43.0015 24.3047 42.4362 23.357 42.048 22.2836C41.6712 21.2102 41.4828 20.0741 41.4828 18.8751C41.4828 17.4935 41.7283 16.2031 42.2193 15.0042C42.7103 13.7938 43.3954 12.7433 44.2747 11.8526C45.1653 10.9505 46.2215 10.2426 47.4433 9.72874C48.6651 9.20348 50.0068 8.94085 51.4684 8.94085C52.8958 8.94085 54.1575 9.18064 55.2537 9.66022C56.3499 10.1398 57.2691 10.7907 58.0114 11.6128C58.7536 12.435 59.3131 13.3884 59.6899 14.4732C60.0781 15.5466 60.2723 16.6827 60.2723 17.8817C60.2723 19.2748 60.0211 20.5765 59.5186 21.7869C59.0276 22.9859 58.3368 24.0307 57.4461 24.9213C56.5555 25.812 55.4992 26.5142 54.2774 27.0281C53.0556 27.5305 51.7197 27.7817 50.2695 27.7817ZM50.9889 24.8186C51.7197 24.8186 52.3876 24.6701 52.9928 24.3732C53.598 24.0649 54.1176 23.6424 54.5515 23.1058C54.9854 22.5577 55.3223 21.9068 55.562 21.1532C55.8018 20.3995 55.9217 19.566 55.9217 18.6525C55.9217 17.7618 55.8018 16.9111 55.562 16.1004C55.3337 15.2896 54.9968 14.576 54.5515 13.9594C54.1062 13.3313 53.5638 12.8346 52.9243 12.4692C52.2849 12.0924 51.5598 11.904 50.7491 11.904C50.0068 11.904 49.3331 12.0582 48.728 12.3665C48.1228 12.6748 47.6032 13.103 47.1693 13.6511C46.7468 14.1992 46.4157 14.8557 46.1759 15.6208C45.9361 16.3744 45.8162 17.2023 45.8162 18.1044C45.8162 19.0064 45.9304 19.8628 46.1587 20.6736C46.3985 21.4843 46.7411 22.198 47.1864 22.8146C47.6318 23.4312 48.1741 23.9222 48.8136 24.2876C49.453 24.6416 50.1781 24.8186 50.9889 24.8186Z" fill="#005227"/>
<path d="M78.0505 12.6576C77.3083 12.3379 76.6403 12.1324 76.0465 12.041C75.4642 11.9497 74.9846 11.904 74.6078 11.904C73.6829 11.904 72.855 12.0696 72.1242 12.4007C71.4048 12.7319 70.7996 13.1886 70.3086 13.771C69.8176 14.3533 69.4408 15.0499 69.1782 15.8606C68.927 16.6599 68.8014 17.5334 68.8014 18.4812C68.8014 19.3376 68.9098 20.1369 69.1268 20.8791C69.3437 21.6213 69.652 22.2722 70.0517 22.8317C70.4514 23.3912 70.9309 23.8308 71.4905 24.1506C72.0614 24.4703 72.6951 24.6301 73.3917 24.6301C74.2138 24.6301 75.0131 24.4189 75.7896 23.9964C76.5775 23.5625 77.3311 22.9687 78.0505 22.2151V12.6576ZM78.0505 0H82.2126V27.4391H78.8213L78.256 24.4075C77.8564 24.7729 77.4168 25.1554 76.9372 25.5551C76.469 25.9433 75.9552 26.303 75.3957 26.6341C74.8361 26.9653 74.2309 27.2393 73.5801 27.4563C72.9406 27.6732 72.2555 27.7817 71.5247 27.7817C70.4285 27.7817 69.4465 27.5419 68.5787 27.0623C67.7109 26.5713 66.9687 25.9262 66.352 25.1269C65.7468 24.3161 65.2844 23.3912 64.9647 22.3521C64.6449 21.313 64.4851 20.2397 64.4851 19.132C64.4851 17.6704 64.7477 16.3173 65.273 15.0727C65.8097 13.8281 66.5405 12.7547 67.4654 11.8526C68.3903 10.9391 69.4751 10.2255 70.7197 9.71161C71.9643 9.19777 73.3003 8.94085 74.7277 8.94085C75.3785 8.94085 75.9894 8.98652 76.5604 9.07787C77.1427 9.16922 77.6394 9.26628 78.0505 9.36905V0Z" fill="#005227"/>
<path d="M96.3083 27.7817C94.881 27.7817 93.6192 27.5419 92.523 27.0623C91.4382 26.5827 90.5247 25.9376 89.7825 25.1269C89.0403 24.3047 88.4751 23.357 88.0869 22.2836C87.71 21.2102 87.5216 20.0741 87.5216 18.8751C87.5216 17.4935 87.7671 16.2031 88.2581 15.0042C88.7491 13.7938 89.4343 12.7433 90.3135 11.8526C91.2042 10.9505 92.2604 10.2426 93.4822 9.72874C94.704 9.20348 96.0457 8.94085 97.5073 8.94085C98.9346 8.94085 100.196 9.18064 101.293 9.66022C102.389 10.1398 103.308 10.7907 104.05 11.6128C104.792 12.435 105.352 13.3884 105.729 14.4732C106.117 15.5466 106.311 16.6827 106.311 17.8817C106.311 19.2748 106.06 20.5765 105.557 21.7869C105.066 22.9859 104.376 24.0307 103.485 24.9213C102.594 25.812 101.538 26.5142 100.316 27.0281C99.0945 27.5305 97.7585 27.7817 96.3083 27.7817ZM97.0277 24.8186C97.7585 24.8186 98.4265 24.6701 99.0317 24.3732C99.6369 24.0649 100.156 23.6424 100.59 23.1058C101.024 22.5577 101.361 21.9068 101.601 21.1532C101.841 20.3995 101.961 19.566 101.961 18.6525C101.961 17.7618 101.841 16.9111 101.601 16.1004C101.373 15.2896 101.036 14.576 100.59 13.9594C100.145 13.3313 99.6026 12.8346 98.9632 12.4692C98.3237 12.0924 97.5986 11.904 96.7879 11.904C96.0457 11.904 95.372 12.0582 94.7668 12.3665C94.1616 12.6748 93.6421 13.103 93.2081 13.6511C92.7857 14.1992 92.4545 14.8557 92.2147 15.6208C91.9749 16.3744 91.855 17.2023 91.855 18.1044C91.855 19.0064 91.9692 19.8628 92.1976 20.6736C92.4374 21.4843 92.7799 22.198 93.2253 22.8146C93.6706 23.4312 94.213 23.9222 94.8524 24.2876C95.4919 24.6416 96.217 24.8186 97.0277 24.8186Z" fill="#005227"/>
<path d="M111.637 0H115.782V27.4391H111.637V0ZM123.558 27.4391L116.793 17.8646L123.85 9.33479H128.046L120.921 17.3507L128.577 27.4391H123.558Z" fill="#005227"/>
<path d="M140.292 27.7817C138.864 27.7817 137.603 27.5419 136.507 27.0623C135.422 26.5827 134.508 25.9376 133.766 25.1269C133.024 24.3047 132.459 23.357 132.07 22.2836C131.694 21.2102 131.505 20.0741 131.505 18.8751C131.505 17.4935 131.751 16.2031 132.242 15.0042C132.733 13.7938 133.418 12.7433 134.297 11.8526C135.188 10.9505 136.244 10.2426 137.466 9.72874C138.687 9.20348 140.029 8.94085 141.491 8.94085C142.918 8.94085 144.18 9.18064 145.276 9.66022C146.372 10.1398 147.291 10.7907 148.034 11.6128C148.776 12.435 149.335 13.3884 149.712 14.4732C150.1 15.5466 150.295 16.6827 150.295 17.8817C150.295 19.2748 150.043 20.5765 149.541 21.7869C149.05 22.9859 148.359 24.0307 147.468 24.9213C146.578 25.812 145.522 26.5142 144.3 27.0281C143.078 27.5305 141.742 27.7817 140.292 27.7817ZM141.011 24.8186C141.742 24.8186 142.41 24.6701 143.015 24.3732C143.62 24.0649 144.14 23.6424 144.574 23.1058C145.008 22.5577 145.345 21.9068 145.584 21.1532C145.824 20.3995 145.944 19.566 145.944 18.6525C145.944 17.7618 145.824 16.9111 145.584 16.1004C145.356 15.2896 145.019 14.576 144.574 13.9594C144.128 13.3313 143.586 12.8346 142.947 12.4692C142.307 12.0924 141.582 11.904 140.771 11.904C140.029 11.904 139.355 12.0582 138.75 12.3665C138.145 12.6748 137.626 13.103 137.192 13.6511C136.769 14.1992 136.438 14.8557 136.198 15.6208C135.958 16.3744 135.839 17.2023 135.839 18.1044C135.839 19.0064 135.953 19.8628 136.181 20.6736C136.421 21.4843 136.763 22.198 137.209 22.8146C137.654 23.4312 138.196 23.9222 138.836 24.2876C139.475 24.6416 140.2 24.8186 141.011 24.8186Z" fill="#005227"/>
<path d="M13 52.2054V43.8458H13.972V52.2054H13Z" fill="#EB3845"/>
<path d="M19.3121 52.2054H18.34V44.7092H15.6927V43.8458H21.9595V44.7092H19.3121V52.2054Z" fill="#EB3845"/>
<path d="M28.9463 52.2054L27.9056 49.5466H24.5549L23.5257 52.2054H22.5422L25.8472 43.8115H26.6648L29.9526 52.2054H28.9463ZM27.6026 48.6717L26.6305 46.0815C26.5047 45.7537 26.3751 45.3515 26.2417 44.8751C26.1578 45.241 26.0378 45.6432 25.8815 46.0815L24.898 48.6717H27.6026Z" fill="#EB3845"/>
<path d="M31.5703 52.2054V43.8458H32.5424V51.3248H36.2304V52.2054H31.5703Z" fill="#EB3845"/>
<path d="M38.1226 52.2054V43.8458H39.0946V52.2054H38.1226Z" fill="#EB3845"/>
<path d="M47.1163 52.2054L46.0757 49.5466H42.725L41.6958 52.2054H40.7123L44.0172 43.8115H44.8349L48.1227 52.2054H47.1163ZM45.7726 48.6717L44.8006 46.0815C44.6748 45.7537 44.5452 45.3515 44.4118 44.8751C44.3279 45.241 44.2078 45.6432 44.0515 46.0815L43.0681 48.6717H45.7726Z" fill="#EB3845"/>
<path d="M56.2702 52.2054H55.1609L50.5923 45.1895H50.5466C50.6076 46.0129 50.6381 46.7677 50.6381 47.4538V52.2054H49.7404V43.8458H50.8382L55.3954 50.8331H55.4411C55.4335 50.7302 55.4163 50.4004 55.3897 49.8439C55.363 49.2835 55.3534 48.8833 55.3611 48.6431V43.8458H56.2702V52.2054Z" fill="#EB3845"/>
<path d="M63.4154 48.7282V52.2047H62.4434V43.8452H64.7362C65.7616 43.8452 66.5183 44.0415 67.0062 44.4341C67.498 44.8267 67.7438 45.4176 67.7438 46.2067C67.7438 47.3121 67.1835 48.0593 66.0628 48.4481L68.3328 52.2047H67.1835L65.1594 48.7282H63.4154ZM63.4154 47.8934H64.7477C65.4338 47.8934 65.937 47.7581 66.2572 47.4875C66.5774 47.213 66.7375 46.8032 66.7375 46.2581C66.7375 45.7054 66.5736 45.307 66.2458 45.0631C65.9217 44.8191 65.3995 44.6971 64.6791 44.6971H63.4154V47.8934Z" fill="#16AF5F"/>
<path d="M74.8107 52.2047H70.1506V43.8452H74.8107V44.7086H71.1227V47.4017H74.5877V48.2594H71.1227V51.3356H74.8107V52.2047Z" fill="#16AF5F"/>
<path d="M81.8547 49.9805C81.8547 50.7162 81.5878 51.2899 81.0542 51.7015C80.5205 52.1132 79.7962 52.3191 78.8814 52.3191C77.8903 52.3191 77.1279 52.1914 76.5942 51.936V50.9982C76.9373 51.1431 77.3109 51.2575 77.7149 51.3413C78.119 51.4252 78.5192 51.4671 78.9157 51.4671C79.5637 51.4671 80.0516 51.3451 80.3794 51.1012C80.7073 50.8534 80.8712 50.5103 80.8712 50.072C80.8712 49.7822 80.8121 49.5459 80.6939 49.3629C80.5796 49.1761 80.3852 49.0046 80.1107 48.8483C79.8401 48.692 79.4265 48.5148 78.8699 48.3166C78.0923 48.0383 77.5358 47.7086 77.2003 47.3274C76.8687 46.9462 76.7029 46.4487 76.7029 45.835C76.7029 45.1908 76.9449 44.6781 77.429 44.2969C77.9131 43.9157 78.5535 43.7251 79.3502 43.7251C80.1812 43.7251 80.9455 43.8776 81.6431 44.1825L81.3401 45.0288C80.6501 44.7391 79.9792 44.5942 79.3274 44.5942C78.8127 44.5942 78.4106 44.7048 78.1209 44.9259C77.8312 45.1469 77.6863 45.4538 77.6863 45.8464C77.6863 46.1361 77.7397 46.3744 77.8464 46.5612C77.9532 46.7441 78.1323 46.9138 78.3839 47.0701C78.6393 47.2225 79.0281 47.3922 79.5504 47.579C80.4271 47.8915 81.0294 48.227 81.3572 48.5853C81.6888 48.9436 81.8547 49.4087 81.8547 49.9805Z" fill="#16AF5F"/>
<path d="M86.6058 52.2047H85.6337V44.7086H82.9863V43.8452H89.2531V44.7086H86.6058V52.2047Z" fill="#16AF5F"/>
<path d="M96.2399 52.2047L95.1993 49.5459H91.8486L90.8194 52.2047H89.8359L93.1409 43.8109H93.9585L97.2463 52.2047H96.2399ZM94.8962 48.6711L93.9242 46.0809C93.7984 45.753 93.6688 45.3509 93.5354 44.8744C93.4515 45.2403 93.3315 45.6425 93.1752 46.0809L92.1917 48.6711H94.8962Z" fill="#16AF5F"/>
<path d="M105.177 43.8452V49.2543C105.177 50.2073 104.889 50.9563 104.313 51.5014C103.738 52.0465 102.947 52.3191 101.94 52.3191C100.934 52.3191 100.154 52.0446 99.6016 51.4957C99.0527 50.9468 98.7782 50.192 98.7782 49.2314V43.8452H99.7503V49.3C99.7503 49.9976 99.9409 50.5332 100.322 50.9068C100.703 51.2803 101.264 51.4671 102.003 51.4671C102.708 51.4671 103.252 51.2803 103.633 50.9068C104.014 50.5294 104.205 49.99 104.205 49.2886V43.8452H105.177Z" fill="#16AF5F"/>
<path d="M108.836 48.7282V52.2047H107.863V43.8452H110.156C111.182 43.8452 111.938 44.0415 112.426 44.4341C112.918 44.8267 113.164 45.4176 113.164 46.2067C113.164 47.3121 112.604 48.0593 111.483 48.4481L113.753 52.2047H112.604L110.579 48.7282H108.836ZM108.836 47.8934H110.168C110.854 47.8934 111.357 47.7581 111.677 47.4875C111.998 47.213 112.158 46.8032 112.158 46.2581C112.158 45.7054 111.994 45.307 111.666 45.0631C111.342 44.8191 110.82 44.6971 110.099 44.6971H108.836V47.8934Z" fill="#16AF5F"/>
<path d="M120.825 52.2047L119.785 49.5459H116.434L115.405 52.2047H114.421L117.726 43.8109H118.544L121.832 52.2047H120.825ZM119.482 48.6711L118.51 46.0809C118.384 45.753 118.254 45.3509 118.121 44.8744C118.037 45.2403 117.917 45.6425 117.761 46.0809L116.777 48.6711H119.482Z" fill="#16AF5F"/>
<path d="M129.979 52.2047H128.87L124.301 45.1889H124.256C124.317 46.0123 124.347 46.767 124.347 47.4532V52.2047H123.45V43.8452H124.547L129.105 50.8324H129.15C129.143 50.7295 129.125 50.3998 129.099 49.8432C129.072 49.2829 129.063 48.8826 129.07 48.6425V43.8452H129.979V52.2047Z" fill="#16AF5F"/>
<path d="M135.319 52.2047H134.347V44.7086H131.7V43.8452H137.967V44.7086H135.319V52.2047Z" fill="#16AF5F"/>
<rect y="34.9556" width="150.335" height="1.2528" fill="#005227"/>
</svg>
